<?xml version="1.0" standalone="no"?>
<!DOCTYPE svg PUBLIC "-//W3C//DTD SVG 20010904//EN"
 "http://www.w3.org/TR/2001/REC-SVG-20010904/DTD/svg10.dtd">
<svg version="1.0" xmlns="http://www.w3.org/2000/svg"
 width="260.000000pt" height="260.000000pt" viewBox="0 0 260.000000 260.000000"
 preserveAspectRatio="xMidYMid meet">
<metadata>
Created by potrace 1.11, written by Peter Selinger 2001-2013
</metadata>
<g transform="translate(0.000000,260.000000) scale(0.100000,-0.100000)"
fill="#000000" stroke="none">
<path d="M114 2581 c-3 -3 -9 -6 -12 -6 -19 -1 -52 -28 -69 -57 -19 -32 -19
-65 -18 -1218 0 -1107 2 -1187 18 -1217 10 -18 29 -41 44 -50 26 -17 99 -18
1217 -18 1309 -1 1223 -5 1271 59 20 27 20 39 21 1209 0 873 -2 1191 -11 1217
-7 22 -26 44 -50 60 l-38 25 -1183 1 c-652 0 -1187 -2 -1190 -5z"/>
</g>
</svg>
